<?xml version="1.0" standalone="no"?>
<!DOCTYPE svg PUBLIC "-//W3C//DTD SVG 20010904//EN"
 "http://www.w3.org/TR/2001/REC-SVG-20010904/DTD/svg10.dtd">
<svg version="1.0" xmlns="http://www.w3.org/2000/svg"
 width="512.000000pt" height="512.000000pt" viewBox="0 0 512.000000 512.000000"
 preserveAspectRatio="xMidYMid meet">

<g transform="translate(0.000000,512.000000) scale(0.100000,-0.100000)"
fill="#000000" stroke="none">
<path d="M2940 4865 c-293 -47 -576 -227 -747 -476 -46 -67 -110 -200 -138
-286 -52 -158 -63 -308 -42 -552 2 -23 -9 -27 -285 -106 l-286 -82 -554 158
c-304 87 -563 159 -576 159 -13 0 -34 -11 -47 -25 l-25 -24 0 -1509 c0 -1423
1 -1511 18 -1531 13 -17 146 -58 601 -188 l583 -167 560 161 560 160 560 -160
560 -161 577 165 c433 123 582 169 599 186 l22 22 0 1511 0 1511 -25 24 c-13
14 -33 25 -45 25 -11 0 -147 -36 -302 -80 -154 -45 -282 -80 -284 -78 -1 2 1
35 6 73 40 309 -47 627 -236 863 -176 220 -427 366 -701 407 -118 18 -239 18
-353 0z m411 -174 c182 -47 320 -128 454 -265 127 -130 207 -274 252 -452 24
-96 24 -345 -1 -469 -52 -262 -179 -531 -368 -777 -123 -159 -380 -410 -555
-541 -14 -10 -48 16 -214 160 -396 344 -655 753 -735 1158 -25 124 -25 373 -1
469 46 183 129 329 261 462 158 157 305 231 556 278 59 11 277 -3 351 -23z
m-2511 -1322 c212 -61 415 -119 453 -130 l67 -20 0 -1394 c0 -767 -2 -1395 -5
-1395 -3 0 -204 57 -448 126 -243 70 -457 131 -474 136 l-33 9 0 1396 0 1395
28 -7 c15 -3 200 -56 412 -116z m3880 -1274 l0 -1394 -67 -20 c-115 -34 -836
-239 -865 -246 l-28 -7 0 1065 0 1065 74 99 c145 193 250 387 316 583 18 52
34 97 36 99 5 5 504 149 522 150 9 1 12 -284 12 -1394z m-2649 1203 c63 -210
195 -458 350 -659 l59 -76 0 -931 0 -931 -67 -20 c-115 -34 -836 -239 -865
-246 l-28 -7 0 1396 0 1395 38 10 c20 6 136 40 257 75 121 36 223 65 227 65 4
1 17 -32 29 -71z m872 -1182 l97 -78 0 -308 0 -308 -30 -12 c-68 -28 -130
-129 -130 -212 0 -81 59 -176 133 -215 41 -21 124 -27 176 -13 90 24 171 132
171 228 0 83 -62 184 -130 212 l-30 12 0 307 0 307 103 81 c56 44 146 122 200
173 l97 92 0 -976 c0 -537 -2 -976 -5 -976 -3 0 -204 57 -448 126 -243 70
-457 131 -474 136 l-33 9 0 840 0 840 103 -93 c56 -52 146 -129 200 -172z
m232 -861 c50 -49 15 -135 -55 -135 -41 0 -80 39 -80 80 0 41 39 80 80 80 19
0 40 -9 55 -25z"/>
<path d="M3100 4553 c-33 -12 -55 -44 -117 -168 -36 -71 -67 -132 -69 -134 -2
-3 -74 -15 -161 -27 -177 -26 -197 -36 -197 -101 0 -34 9 -45 117 -149 l118
-113 -28 -160 c-30 -179 -28 -198 30 -222 28 -12 38 -8 178 65 l149 77 149
-77 c140 -73 150 -77 178 -65 58 24 61 44 30 222 l-27 158 117 114 c107 105
117 117 117 151 0 64 -20 74 -197 100 -87 12 -159 24 -161 27 -2 2 -36 68 -75
146 -62 122 -76 143 -103 152 -17 6 -31 11 -32 10 -1 0 -8 -3 -16 -6z m65
-343 c22 -45 46 -87 55 -95 13 -12 40 -18 179 -41 l34 -5 -70 -72 c-39 -40
-73 -80 -76 -90 -4 -10 0 -52 8 -95 23 -118 26 -115 -67 -66 -46 24 -94 43
-108 43 -14 0 -62 -19 -107 -43 -95 -49 -92 -53 -68 68 8 42 11 84 8 94 -3 9
-37 49 -76 89 l-70 72 34 5 c139 23 166 29 179 41 9 8 33 50 55 95 21 44 42
80 45 80 3 0 24 -36 45 -80z"/>
</g>
</svg>
